<svg width="170" height="170" viewBox="0 0 170 170" fill="none" xmlns="http://www.w3.org/2000/svg">
<path d="M85.7178 22.3486L85.4223 22.178L85.1269 22.3486L31.2617 53.4476L30.9663 53.6182V53.9594V116.157V116.499L31.2617 116.669L85.1269 147.768L85.4223 147.939L85.7178 147.768L139.583 116.669L139.878 116.499V116.157V53.9594V53.6182L139.583 53.4476L85.7178 22.3486Z" stroke="#D1AD74" stroke-width="1.18184"/>
<path d="M101.576 24.7245L101.433 24.5813L101.238 24.6337L41.1335 40.7386L40.9379 40.791L40.8855 40.9866L24.7807 101.091L24.7283 101.286L24.8714 101.429L68.8706 145.429L69.0138 145.572L69.2094 145.519L129.313 129.414L129.509 129.362L129.561 129.167L145.666 69.0625L145.719 68.8669L145.575 68.7237L101.576 24.7245Z" stroke="#D1AD74" stroke-width="0.701419"/>
<path d="M116.289 31.0098L116.23 30.9075L116.112 30.9075L53.8878 30.9075L53.7696 30.9075L53.7106 31.0098L22.5984 84.8976L22.5394 84.9999L22.5985 85.1022L53.7106 138.99L53.7696 139.092L53.8878 139.092L116.112 139.092L116.23 139.092L116.289 138.99L147.401 85.1022L147.46 84.9999L147.401 84.8976L116.289 31.0098Z" stroke="#D1AD74" stroke-width="0.409198"/>
<path d="M51.1227 78.5753C50.7128 78.7034 50.5206 78.6778 50.5462 78.4985C50.5462 78.3447 50.6359 78.255 50.8152 78.2294C51.2508 78.1525 51.6736 77.986 52.0836 77.7298C52.4935 77.4735 52.8522 77.1789 53.1597 76.8458C53.5697 76.4102 54.1334 75.6672 54.8508 74.6166C55.5682 73.5661 56.4266 72.3362 57.4259 70.927C58.4508 69.4921 59.591 68.0316 60.8465 66.5455C62.0508 65.1363 63.4472 63.6245 65.0358 62.0103C66.65 60.3961 68.3539 58.7306 70.1475 57.0139C70.3525 56.8345 70.5447 56.7577 70.724 56.7833C70.9034 56.8089 71.0187 56.873 71.0699 56.9755C71.1212 57.0523 71.0315 57.1164 70.8009 57.1676C70.6215 57.1932 70.4422 57.2957 70.2628 57.4751C70.1091 57.6288 69.9938 57.7441 69.9169 57.821C69.2251 58.4872 68.4308 59.4224 67.534 60.6267C66.6372 61.8053 65.6379 63.1377 64.5362 64.6238C63.46 66.1099 62.2942 67.6601 61.0387 69.2743C59.7832 70.8629 58.4508 72.4131 57.0415 73.9248C55.6323 75.4109 54.1462 76.7561 52.5832 77.9604C52.4038 78.0885 52.2501 78.1013 52.122 77.9988C51.9683 77.8963 52.0836 77.781 52.4679 77.6529C53.3391 77.3711 54.3896 76.7689 55.6195 75.8465C56.8494 74.8985 58.1946 73.7583 59.655 72.4259C61.1155 71.0935 62.6273 69.6715 64.1902 68.1597C65.7532 66.648 67.3162 65.1619 68.8792 63.7014C70.4678 62.2153 71.9795 60.8701 73.4144 59.6658C74.8493 58.4359 76.1688 57.4751 77.3731 56.7833C77.6806 56.6039 77.8471 56.5911 77.8727 56.7449C77.924 56.8986 77.8727 57.0139 77.719 57.0908C77.5909 57.142 77.2706 57.347 76.7581 57.7057C76.2457 58.0388 75.8485 58.3463 75.5667 58.6281C75.3617 58.8331 75.003 59.3327 74.4905 60.127C74.0037 60.8957 73.4144 61.8566 72.7226 63.0096C72.0308 64.1626 71.2621 65.4181 70.4165 66.7761C69.5966 68.1085 68.7383 69.4409 67.8415 70.7732C66.9703 72.1056 66.0991 73.3355 65.228 74.4629C64.3568 75.5903 63.5369 76.5127 62.7682 77.2301C62.6401 77.3326 62.5632 77.3454 62.5376 77.2686C62.512 77.1917 62.5248 77.0764 62.576 76.9227C62.6273 76.7689 62.7041 76.6536 62.8066 76.5768C64.0878 75.475 65.4073 74.2323 66.7653 72.8487C68.1489 71.465 69.5454 70.0558 70.9546 68.6209C72.3895 67.1604 73.8115 65.7512 75.2208 64.3932C76.6557 63.0352 78.0649 61.8181 79.4485 60.742C80.8321 59.6658 82.1773 58.8075 83.4841 58.1669C84.7908 57.5263 86.0335 57.2061 87.2122 57.2061C87.9296 57.2061 88.6086 57.3598 89.2492 57.6673C89.9154 57.9747 90.2485 58.5 90.2485 59.2431C90.2485 59.8836 90.0435 60.4217 89.6335 60.8573C89.2235 61.2929 88.7239 61.626 88.1346 61.8566C87.5709 62.0615 87.0072 62.164 86.4435 62.164C85.6492 62.164 85.0471 62.0103 84.6371 61.7028C84.2271 61.3697 83.9709 61.0751 83.8684 60.8188C83.7659 60.5882 83.8556 60.4217 84.1375 60.3192C84.4193 60.2167 84.5602 60.2936 84.5602 60.5498C84.5602 60.9598 84.778 61.2801 85.2136 61.5107C85.6492 61.7156 86.1104 61.8181 86.5972 61.8181C87.0328 61.8181 87.4684 61.7156 87.904 61.5107C88.3396 61.3057 88.6983 61.011 88.9801 60.6267C89.2876 60.2167 89.4413 59.7555 89.4413 59.2431C89.4413 58.7818 89.2107 58.4103 88.7495 58.1285C88.3139 57.821 87.8015 57.6673 87.2122 57.6673C86.0592 57.6673 84.8293 57.9875 83.5225 58.6281C82.2158 59.2687 80.8834 60.127 79.5254 61.2032C78.1674 62.2537 76.7966 63.4452 75.413 64.7775C74.055 66.0843 72.7226 67.4295 71.4158 68.8131C70.1091 70.1711 68.8536 71.4779 67.6493 72.7334C66.4707 73.9632 65.3689 75.0394 64.344 75.9618C63.6778 76.5768 63.0757 77.0892 62.5376 77.4992C62.0251 77.9091 61.359 78.2678 60.539 78.5753C60.1291 78.7291 59.9113 78.7034 59.8856 78.4985C59.8856 78.3191 60.0394 78.191 60.3469 78.1141C60.8593 77.986 61.3461 77.7042 61.8073 77.2686C62.2686 76.8074 62.6657 76.2308 62.9988 75.539C63.5112 74.4885 64.1902 73.2842 65.0358 71.9263C65.907 70.5683 66.8422 69.1718 67.8415 67.737C68.8408 66.3021 69.84 64.9441 70.8393 63.663C71.8642 62.3562 72.7866 61.216 73.6066 60.2423C74.4265 59.2687 75.0799 58.5769 75.5667 58.1669C75.6692 58.0644 75.682 58.1541 75.6051 58.4359C75.5283 58.6922 75.2464 58.974 74.7596 59.2815C73.4016 60.1783 71.9539 61.3441 70.4165 62.779C68.8792 64.1882 67.2906 65.7128 65.6507 67.3526C64.0365 68.9925 62.3967 70.5811 60.7312 72.1184C59.0657 73.6558 57.4259 75.0138 55.8117 76.1924C54.1974 77.3454 52.6344 78.1397 51.1227 78.5753ZM45.8188 64.6238C45.8701 64.0601 46.1391 63.4195 46.6259 62.7021C47.1128 61.9847 47.7533 61.3057 48.5476 60.6651C49.3419 59.9989 50.2387 59.448 51.238 59.0125C52.2373 58.5769 53.275 58.3591 54.3512 58.3591C55.4273 58.3591 56.4907 58.5128 57.5412 58.8203C58.5917 59.1278 59.5782 59.448 60.5006 59.7811C61.4486 60.0886 62.2814 60.2423 62.9988 60.2423C63.7675 60.2423 64.4977 60.1014 65.1895 59.8196C65.8813 59.5377 66.4707 59.2302 66.9575 58.8972C67.4699 58.5641 67.7902 58.3335 67.9183 58.2053C68.1233 58.026 68.2386 57.9747 68.2642 58.0516C68.3155 58.1028 68.2771 58.2053 68.1489 58.3591C68.0721 58.4616 67.7774 58.7434 67.265 59.2046C66.7781 59.6402 66.0863 60.063 65.1895 60.4729C64.2927 60.8829 63.2294 61.0879 61.9995 61.0879C61.0771 61.0879 60.27 61.011 59.5782 60.8573C58.912 60.7035 58.2714 60.537 57.6565 60.3576C57.0672 60.1527 56.4522 59.9733 55.8117 59.8196C55.1967 59.6658 54.4793 59.589 53.6594 59.589C52.7113 59.589 51.8017 59.7683 50.9305 60.127C50.0338 60.4858 49.2395 60.9341 48.5476 61.4722C47.8558 62.0103 47.3178 62.5612 46.9334 63.1249C46.5235 63.663 46.3313 64.1242 46.3569 64.5085C46.3825 64.7647 46.2929 64.9441 46.0879 65.0466C45.8829 65.1491 45.7932 65.0081 45.8188 64.6238Z" fill="black"/>
<path d="M100.106 117.049C99.0554 117.049 97.7486 116.421 96.1856 115.165C95.0839 114.986 94.1358 114.743 93.3415 114.435C92.5728 114.153 91.9323 113.807 91.4198 113.397C90.7024 112.783 90.0746 111.963 89.5366 110.938C88.9985 109.913 88.7295 108.926 88.7295 107.978C88.7295 107.261 88.896 106.62 89.2291 106.057C89.9978 104.699 90.9714 104.02 92.1501 104.02C93.0469 104.02 93.5721 104.775 93.7259 106.287C93.9052 107.696 94.0461 108.824 94.1486 109.669C94.2768 110.489 94.3792 111.027 94.4561 111.284C94.8404 112.539 95.4938 113.602 96.4162 114.474C97.4924 114.704 98.6582 114.82 99.9137 114.82C102.681 114.82 105.333 114.294 107.87 113.244C108.946 112.783 109.996 112.18 111.021 111.437C112.046 110.694 112.892 109.874 113.558 108.978C114.224 108.081 114.557 107.21 114.557 106.364C114.557 105.16 113.494 104.225 111.367 103.558L104.603 102.021C103.219 101.714 102.104 101.175 101.259 100.407C100.439 99.6125 100.029 98.7157 100.029 97.7164C100.029 96.1791 100.99 94.6417 102.912 93.1044C103.885 92.31 105.025 91.6439 106.332 91.1058C107.639 90.5421 109.01 90.1193 110.445 89.8375C111.905 89.53 113.302 89.3763 114.634 89.3763C116.53 89.3763 118.144 89.6709 119.477 90.2602C120.835 90.8496 121.68 91.7079 122.013 92.8353C122.09 93.0915 122.129 93.3734 122.129 93.6809C122.129 95.2438 121.347 96.3328 119.784 96.9477C118.836 97.3321 118.029 97.5243 117.363 97.5243C116.953 97.5243 116.632 97.4474 116.402 97.2936C116.351 97.2424 116.325 97.1783 116.325 97.1015C116.325 96.9221 116.684 96.8196 117.401 96.794C117.837 96.7684 118.195 96.7299 118.477 96.6787C118.759 96.6275 118.964 96.5762 119.092 96.525C120.066 96.0125 120.553 95.2566 120.553 94.2574C120.553 93.7449 120.412 93.2068 120.13 92.6431C119.336 91.1827 117.35 90.4524 114.173 90.4524C113.02 90.4524 111.828 90.5805 110.598 90.8367C109.368 91.0674 108.203 91.4261 107.101 91.9129C105.999 92.3741 105.064 92.9634 104.295 93.6809C102.963 94.9107 102.297 96.0125 102.297 96.9862C102.297 97.7292 102.655 98.3954 103.373 98.9847C104.116 99.5484 105.23 99.9712 106.717 100.253L111.252 101.099C112.994 101.432 114.403 101.931 115.479 102.598C116.556 103.238 117.094 104.225 117.094 105.557C117.094 106.736 116.799 107.837 116.21 108.862C115.62 109.887 114.826 110.81 113.827 111.63C112.853 112.424 111.739 113.09 110.483 113.628C107.639 114.884 104.282 115.511 100.413 115.511C99.9265 115.511 99.4397 115.499 98.9529 115.473C98.466 115.447 97.992 115.409 97.5308 115.358C97.8895 115.563 98.3379 115.768 98.876 115.973C99.4397 116.178 100.08 116.37 100.798 116.549C100.875 116.575 100.913 116.626 100.913 116.703C100.913 116.933 100.644 117.049 100.106 117.049ZM95.0326 114.089C94.3408 113.321 93.8027 112.526 93.4184 111.706C92.8547 110.425 92.4319 108.849 92.1501 106.979C91.9451 105.621 91.7273 104.942 91.4967 104.942C91.2917 104.942 91.0099 105.096 90.6512 105.403C90.3181 105.711 90.1515 106.364 90.1515 107.363C90.1515 109.311 90.8433 111.002 92.2269 112.437C92.9188 113.154 93.854 113.705 95.0326 114.089Z" fill="black"/>
<path d="M89.6788 91.6227C89.2329 91.6227 88.7717 91.4613 88.2951 91.1384C87.8339 90.8309 87.3497 90.3236 86.8423 89.6164C86.6425 89.3243 86.4273 88.9938 86.1967 88.6248C85.9814 88.2559 85.7662 87.8792 85.551 87.4949C85.305 87.7409 85.0513 87.9792 84.79 88.2098C84.5286 88.425 84.2135 88.6479 83.8445 88.8785C83.2142 89.2782 82.6069 89.5626 82.0227 89.7317C81.4385 89.9162 80.8851 90.0085 80.3624 90.0085C79.8243 90.0085 79.3324 89.9162 78.8865 89.7317C78.4561 89.5473 78.1025 89.3013 77.8257 88.9938C77.4107 88.5326 77.2031 87.9945 77.2031 87.3796C77.2031 86.8108 77.3492 86.2881 77.6413 85.8115C77.9487 85.3349 78.3023 84.9198 78.702 84.5662C79.3324 84.0128 80.0242 83.5439 80.7775 83.1595C81.5308 82.7598 82.261 82.3524 82.9682 81.9373L82.9913 81.9143C82.8222 81.3762 82.7376 80.8612 82.7376 80.3692C82.7376 80.2309 82.7453 80.0925 82.7607 79.9541C82.7914 79.8004 82.8145 79.6544 82.8298 79.516C82.9528 78.9626 83.1911 78.5628 83.5447 78.3169C83.9137 78.0555 84.2826 77.9248 84.6516 77.9248C85.0052 77.9248 85.305 78.0248 85.551 78.2246C85.8123 78.4245 85.943 78.7012 85.943 79.0548C85.943 79.3776 85.82 79.7082 85.574 80.0464C85.328 80.3846 85.036 80.6998 84.6977 80.9919C84.3749 81.284 84.0674 81.5299 83.7753 81.7298C83.8983 82.0219 84.0674 82.4062 84.2826 82.8828C84.5132 83.344 84.7515 83.8206 84.9975 84.3126H88.0876C88.3028 84.3126 88.5181 84.3126 88.7333 84.3126C88.9639 84.2972 89.133 84.2434 89.2406 84.1511C89.2714 84.1204 89.3021 84.1127 89.3329 84.1281C89.3636 84.1434 89.3636 84.1819 89.3329 84.2434L88.9178 84.866C88.8717 84.9736 88.7794 85.0274 88.6411 85.0274C88.5949 85.0274 88.5411 85.0274 88.4796 85.0274C88.4181 85.0274 88.3413 85.0197 88.249 85.0044C88.0645 84.9736 87.8647 84.9506 87.6495 84.9352C87.4496 84.9044 87.2421 84.8814 87.0268 84.866C86.9653 85.1427 86.8654 85.4425 86.727 85.7654C86.5887 86.0882 86.4349 86.3803 86.2658 86.6417C86.5426 87.1182 86.8193 87.5794 87.096 88.0253C87.3727 88.4557 87.6264 88.8247 87.857 89.1322C88.3182 89.7164 88.7487 90.1315 89.1484 90.3774C89.5481 90.6234 89.9171 90.7464 90.2553 90.7464C90.778 90.7464 91.2469 90.5465 91.662 90.1468C92.0924 89.7625 92.4768 89.3474 92.815 88.9016C92.8611 88.8401 92.9072 88.8093 92.9533 88.8093C93.0302 88.8093 93.0686 88.8554 93.0686 88.9477C93.0686 89.0399 93.0379 89.1168 92.9764 89.1783C92.4383 89.9316 91.9002 90.5235 91.3622 90.9539C90.8241 91.3998 90.263 91.6227 89.6788 91.6227ZM83.6831 81.4761C84.1289 81.1687 84.5286 80.8228 84.8822 80.4384C85.2512 80.0387 85.4895 79.639 85.5971 79.2393C85.6125 79.1932 85.6201 79.147 85.6201 79.1009C85.6201 79.0548 85.6201 79.0164 85.6201 78.9856C85.6201 78.7243 85.5356 78.5321 85.3665 78.4091C85.1974 78.2707 85.0052 78.2016 84.79 78.2016C84.544 78.2016 84.2903 78.3015 84.029 78.5013C83.783 78.6858 83.6062 79.001 83.4986 79.4468C83.4832 79.5391 83.4678 79.6313 83.4525 79.7235C83.4525 79.8158 83.4525 79.908 83.4525 80.0003C83.4525 80.2924 83.4755 80.5768 83.5217 80.8535C83.5831 81.1149 83.637 81.3224 83.6831 81.4761ZM81.2617 88.8785C82.1073 88.8785 82.8837 88.7401 83.5908 88.4634C83.9137 88.3404 84.2212 88.1559 84.5132 87.91C84.8207 87.664 85.0974 87.395 85.3434 87.1029C85.2051 86.8415 85.0283 86.5033 84.813 86.0882C84.5978 85.6731 84.3672 85.2119 84.1212 84.7046C83.8138 84.72 83.4602 84.7738 83.0604 84.866C82.6607 84.9582 82.3148 85.112 82.0227 85.3272C81.746 85.5424 81.623 85.8499 81.6538 86.2496C81.6538 86.3572 81.6768 86.4956 81.7229 86.6647C81.7844 86.8184 81.8229 86.9184 81.8382 86.9645L81.6538 87.1029C81.5461 86.903 81.4001 86.657 81.2156 86.3649C81.0465 86.0728 80.9543 85.8576 80.9389 85.7192C80.9235 85.5809 80.9235 85.4118 80.9389 85.2119C80.9696 85.0121 81.0773 84.8353 81.2617 84.6815C81.4616 84.5124 81.7383 84.4048 82.0919 84.3587C82.4455 84.2972 82.8145 84.2664 83.1988 84.2664C83.3218 84.2664 83.4448 84.2741 83.5678 84.2895C83.6908 84.2895 83.8061 84.2895 83.9137 84.2895C83.7753 83.9513 83.6293 83.6054 83.4755 83.2518C83.3372 82.8982 83.1988 82.5446 83.0604 82.191L82.8529 82.3294C82.2533 82.6983 81.623 83.1057 80.962 83.5516C80.3163 83.9974 79.7705 84.497 79.3247 85.0505C79.1248 85.2965 78.948 85.5962 78.7943 85.9498C78.6559 86.3034 78.5867 86.657 78.5867 87.0106C78.5867 87.2105 78.6175 87.418 78.679 87.6332C78.7558 87.8331 78.8711 88.0176 79.0249 88.1867C79.2862 88.4327 79.6091 88.6095 79.9934 88.7171C80.3931 88.8247 80.8159 88.8785 81.2617 88.8785ZM86.0122 86.2035C86.1505 85.9883 86.2812 85.7577 86.4042 85.5117C86.5272 85.2503 86.6271 85.0197 86.704 84.8199C86.458 84.7891 86.212 84.7661 85.9661 84.7507C85.7201 84.7353 85.4664 84.72 85.2051 84.7046C85.3742 84.9967 85.5202 85.2734 85.6432 85.5348C85.7816 85.7961 85.9046 86.019 86.0122 86.2035Z" fill="black"/>
</svg>
